HIERARCHY
ROOT hip
{
	OFFSET 0.000000 0.000000 0.000000 
	CHANNELS 6 Xposition Yposition Zposition Xrotation Zrotation Yrotation
	JOINT abdomen
	{
		OFFSET 0.000000 3.402643 0.000000 
		CHANNELS 3 Xrotation Zrotation Yrotation
		JOINT chest
		{
			OFFSET 0.000000 8.438565 -0.680529 
			CHANNELS 3 Xrotation Zrotation Yrotation
			JOINT neck
			{
				OFFSET 0.000000 10.207942 -0.272212 
				CHANNELS 3 Xrotation Zrotation Yrotation
				JOINT head
				{
					OFFSET 0.000000 3.130431 0.000000 
					CHANNELS 3 Xrotation Zrotation Yrotation
					End Site
					{
						OFFSET 0.000000 3.130435 0.000000 
					}
				}
			}
			JOINT lCollar
			{
				OFFSET 3.470700 6.669187 -0.816635 
				CHANNELS 3 Yrotation Zrotation Xrotation
				JOINT lShldr
				{
					OFFSET 3.198488 0.000000 0.000000 
					CHANNELS 3 Zrotation Yrotation Xrotation
					JOINT lForeArm
					{
						OFFSET 10.139888 0.000000 0.000000 
						CHANNELS 3 Yrotation Zrotation Xrotation
						JOINT lHand
						{
							OFFSET 8.370511 0.000000 0.000000 
							CHANNELS 3 Zrotation Yrotation Xrotation
							End Site
							{
								OFFSET 4.083176 0.000000 0.000000 
							}
						}
					}
				}
			}
			JOINT rCollar
			{
				OFFSET -3.470700 6.669187 -0.816635 
				CHANNELS 3 Yrotation Zrotation Xrotation
				JOINT rShldr
				{
					OFFSET -3.198488 0.000000 0.000000 
					CHANNELS 3 Zrotation Yrotation Xrotation
					JOINT rForeArm
					{
						OFFSET -10.139888 0.000000 0.000000 
						CHANNELS 3 Yrotation Zrotation Xrotation
						JOINT rHand
						{
							OFFSET -8.370511 0.000000 0.000000 
							CHANNELS 3 Zrotation Yrotation Xrotation
							End Site
							{
								OFFSET -4.083176 0.000000 0.000000 
							}
						}
					}
				}
			}
		}
	}
	JOINT lThigh
	{
		OFFSET 5.308129 -1.633274 1.361059 
		CHANNELS 3 Xrotation Zrotation Yrotation
		JOINT lShin
		{
			OFFSET -2.041588 -20.007561 0.000000 
			CHANNELS 3 Xrotation Zrotation Yrotation
			JOINT lFoot
			{
				OFFSET 0.000000 -19.190928 -1.224953 
				CHANNELS 3 Xrotation Yrotation Zrotation
				End Site
				{
					OFFSET 0.000000 -2.449906 4.627600 
				}
			}
		}
	}
	JOINT rThigh
	{
		OFFSET -5.308129 -1.633274 1.361059 
		CHANNELS 3 Xrotation Zrotation Yrotation
		JOINT rShin
		{
			OFFSET 2.041588 -20.007561 0.000000 
			CHANNELS 3 Xrotation Zrotation Yrotation
			JOINT rFoot
			{
				OFFSET 0.000000 -19.190928 -1.224953 
				CHANNELS 3 Xrotation Yrotation Zrotation
				End Site
				{
					OFFSET 0.000000 -2.449906 4.627600 
				}
			}
		}
	}
}
MOTION
Frames: 11
Frame Time: 0.033333
-0.076041 48.098106 6.121705 12.080078 0.000000 0.000000 29.822811 -7.874106 -5.629282 3.134768 -15.498050 17.790359 -3.563480 3.000522 1.096876 -23.486328 -3.164063 30.155716 2.000000 -2.000000 0.000000 -87.031250 15.947264 -14.323489 -132.682983 3.214064 -9.587422 22.449469 9.865170 58.050537 -2.000000 2.000000 0.000000 36.738281 27.812502 -10.913408 147.513474 10.481114 -44.878033 -36.352020 -0.127476 105.034813 -23.166967 13.121736 -4.579004 16.241608 -4.585230 -0.790961 -10.283087 0.045539 0.022118 -21.129480 -4.452667 1.680967 16.222204 4.577706 0.515924 -10.278989 0.017978 -0.715760 
-0.082288 47.950897 5.862700 12.744141 0.000000 0.000000 29.822811 -7.874106 -5.629282 2.373047 -15.332031 15.390622 -5.760574 3.009285 1.154812 -20.771484 -3.007812 27.587894 2.000000 -2.000000 0.000000 -89.189453 24.238281 -14.322163 -142.103302 4.301515 -9.373716 17.624872 17.516081 61.703678 -2.000000 2.000000 0.000000 31.728514 30.957033 -12.021485 148.348755 11.725053 -48.558064 -35.763691 2.677379 104.050270 -25.235556 12.945647 -4.979991 18.036798 -4.538169 -0.828966 -11.240228 -0.003879 0.030624 -22.921806 -4.403176 1.786910 18.027441 4.567227 0.599475 -11.236018 0.030304 -0.755258 
-0.084852 48.098106 6.907959 13.554688 0.000000 0.000000 29.822811 -7.874106 -5.629282 3.378908 -15.615236 15.124327 -3.846434 2.999629 1.156270 -24.775393 -2.988281 27.607426 2.000000 -2.000000 0.000000 -88.222656 20.400389 -14.287110 -142.287506 4.570971 -9.095973 21.330029 16.356392 57.508568 -2.000000 2.000000 0.000000 39.423832 24.882813 -8.423625 144.862213 11.650313 -42.074284 -34.937931 7.268023 101.702736 -25.235558 12.945647 -4.979990 18.036798 -4.538169 -0.828966 -11.240228 -0.003879 0.030624 -22.921806 -4.403175 1.786910 18.027441 4.567225 0.599476 -11.235863 0.018629 -0.750200 
-0.085078 48.208511 7.427833 14.355468 0.000000 0.000000 29.822811 -7.874106 -5.629282 4.384766 -15.878905 14.870376 -1.932811 2.990297 1.029284 -28.964844 -2.988281 27.548826 2.000000 -2.000000 0.000000 -87.177734 16.357422 -14.303888 -142.461472 4.870260 -8.810172 25.175251 15.399057 53.112762 -2.000000 2.000000 0.000000 46.386723 18.437500 -5.875817 141.304642 11.129604 -35.500671 -34.260456 12.009464 99.246788 -25.235556 12.945647 -4.979991 18.036798 -4.538168 -0.828966 -11.240229 -0.003879 0.030624 -22.921806 -4.403173 1.786910 18.027441 4.567227 0.599476 -11.255552 0.030216 -0.755348 
-0.085306 48.333645 7.947706 15.185548 0.000000 0.000000 29.822811 -7.874106 -5.629282 5.380858 -16.152344 14.609375 -0.048275 2.991188 0.969889 -33.173828 -2.978516 27.509768 2.000000 -2.000000 0.000000 -86.142578 12.324220 -14.421743 -142.655441 5.139809 -8.533475 29.059412 14.749838 48.743019 -2.000000 2.000000 0.000000 52.968754 11.650391 -4.197248 137.815521 10.256244 -28.959991 -33.787178 16.685322 96.877899 -25.235558 12.945648 -4.979990 18.036798 -4.538168 -0.828966 -11.240228 -0.003879 0.030624 -22.921806 -4.403173 1.786910 18.027441 4.567226 0.599475 -11.235862 0.018628 -0.750201 
-0.084820 48.429329 8.988804 15.996095 0.000000 0.000000 29.822811 -7.874106 -5.629282 6.386720 -16.406252 14.342945 1.933950 2.993540 0.920150 -37.197266 -2.978516 27.489727 2.000000 -2.000000 0.000000 -85.136719 8.437500 -14.588409 -142.849030 5.419689 -8.246827 32.979614 14.398864 44.290478 -2.000000 2.000000 0.000000 59.111324 4.824219 -3.349610 134.500107 8.977927 -22.517967 -33.535927 21.383339 94.441254 -25.235558 12.945648 -4.979990 18.036798 -4.538169 -0.828966 -11.240229 -0.003879 0.030624 -22.921806 -4.403174 1.786910 18.027441 4.567226 0.599475 -11.255551 0.030217 -0.755347 
-0.083519 48.547092 9.336160 16.806643 0.000000 0.000000 29.822811 -7.874106 -5.629282 7.402344 -16.669922 14.059698 3.808457 3.004978 0.799390 -41.347656 -2.958984 27.480469 2.000000 -2.000000 0.000000 -84.101563 4.433594 -14.862524 -143.042297 5.700156 -7.950515 36.943214 14.326743 39.848808 -2.000000 2.000000 0.000000 65.263672 -2.158203 -3.242555 131.330246 7.377105 -16.168098 -33.464859 26.163725 91.964035 -25.235558 12.945647 -4.979990 18.036798 -4.538171 -0.828966 -11.230464 -0.005315 0.029911 -22.921806 -4.403173 1.786911 18.027441 4.567225 0.599475 -11.274719 0.010248 -0.754456 
-0.082217 48.672218 9.683516 17.607422 0.000000 0.000000 29.822811 -7.874106 -5.629282 8.408203 -16.923828 13.789064 5.732108 3.007329 0.749651 -45.576176 -2.958984 27.441408 2.000000 -2.000000 0.000000 -83.046875 0.380859 -15.166034 -143.226837 5.969303 -7.682983 40.907848 14.561041 35.425831 -2.000000 2.000000 0.000000 71.347656 -8.974609 -3.858944 128.396622 5.402740 -9.960848 -33.646587 30.916916 89.342216 -25.235558 12.945648 -4.979990 18.036797 -4.538170 -0.828966 -11.240228 -0.003879 0.030624 -22.921806 -4.403175 1.786910 18.027441 4.567226 0.599476 -11.274926 0.018458 -0.750380 
-0.080915 48.812069 10.030872 18.417969 0.000000 0.000000 29.822811 -7.874106 -5.629282 9.414062 -17.158203 13.496096 7.499229 3.017306 0.619745 -49.599609 -2.939453 27.382816 2.000000 -2.000000 0.000000 -82.001953 -3.496094 -15.556641 -143.410034 6.250406 -7.377094 44.822964 15.089292 30.963306 -2.000000 2.000000 0.000000 77.666023 -15.703124 -5.285844 125.721489 3.196493 -4.057434 -34.084145 35.525620 86.607643 -25.235558 12.945647 -4.979990 18.026129 -4.537923 -0.847622 -11.269510 0.012091 0.027703 -22.921806 -4.403173 1.786911 18.027441 4.567226 0.599475 -11.265162 0.018500 -0.750336 
-0.071359 48.878315 9.885840 17.597658 0.000000 0.000000 29.822811 -7.874106 -5.629282 9.042969 -17.080078 13.600648 7.499229 3.017306 0.619745 -47.861332 -2.646484 29.492189 2.000000 -2.000000 0.000000 -81.210938 -6.455078 -15.889768 -136.978638 5.437970 -7.916405 45.387241 9.482689 33.951057 -2.000000 2.000000 0.000000 71.367188 -10.664063 1.035156 128.482162 3.052784 -4.281283 -33.598701 32.843513 88.622971 -23.911312 13.054465 -4.707330 16.893429 -4.580217 -0.792748 -10.478441 0.033400 0.027114 -21.774742 -4.433002 1.714292 16.884968 4.567347 0.538013 -10.455123 0.035721 -0.718335 
-0.061803 48.922482 9.740808 16.748047 0.000000 0.000000 29.822811 -7.874106 -5.629282 8.681642 -16.992189 13.708084 7.499229 3.017306 0.619745 -46.054688 -2.353515 31.699223 2.000000 -2.000000 0.000000 -80.332031 -9.628906 -16.289063 -130.358719 4.552512 -8.364177 45.720005 3.700456 36.924370 -2.000000 2.000000 0.000000 65.732422 -5.019531 6.649538 131.372055 2.844696 -4.577188 -33.268784 30.049133 90.582649 -22.591702 13.161123 -4.471986 15.711780 -4.587179 -0.768109 -9.638589 0.041074 0.008875 -20.631849 -4.471793 1.632388 15.709827 4.586309 0.524633 -9.635065 0.017224 -0.649905 
